<svg width="64" height="15" viewBox="0 0 64 15" fill="none" xmlns="http://www.w3.org/2000/svg">
<g id="social">
<path id="instagram" fill-rule="evenodd" clip-rule="evenodd" d="M56.3909 0C54.4087 0 54.1618 0.00851263 53.3823 0.0449953C50.7312 0.166604 49.2597 1.63686 49.1381 4.28794C49.1029 5.06745 49.0944 5.31553 49.0944 7.29654C49.0944 9.27877 49.1029 9.52685 49.1381 10.3052C49.2597 12.955 50.7312 14.4277 53.3823 14.5493C54.1618 14.5846 54.4087 14.5931 56.3909 14.5931C58.3731 14.5931 58.6212 14.5846 59.4007 14.5493C62.0469 14.4277 63.5245 12.9574 63.6437 10.3052C63.6789 9.52685 63.6874 9.27877 63.6874 7.29654C63.6874 5.31553 63.6789 5.06745 63.6437 4.28794C63.5245 1.64051 62.0518 0.165388 59.4007 0.0449953C58.6212 0.00851263 58.3731 0 56.3909 0ZM56.3909 1.31603C58.3391 1.31603 58.5701 1.32332 59.3399 1.35859C61.3185 1.44858 62.2403 2.38619 62.3315 4.34896C62.3655 5.11874 62.3728 5.34858 62.3728 7.29676C62.3728 9.24494 62.3655 9.476 62.3315 10.2446C62.2403 12.2061 61.3197 13.1462 59.3399 13.2361C58.5701 13.2702 58.3403 13.2787 56.3909 13.2787C54.4427 13.2787 54.2116 13.2714 53.4431 13.2361C51.4608 13.1449 50.5427 12.2037 50.4515 10.2446C50.4174 9.476 50.4089 9.24494 50.4089 7.29676C50.4089 5.34858 50.4174 5.11753 50.4515 4.34896C50.5415 2.38497 51.4633 1.44737 53.4431 1.35737C54.2116 1.32211 54.4427 1.31603 56.3909 1.31603ZM52.6441 7.29662C52.6441 5.22683 54.3223 3.54984 56.3909 3.54984C58.4595 3.54984 60.1377 5.22805 60.1377 7.29662C60.1377 9.3664 58.4595 11.0434 56.3909 11.0434C54.3223 11.0434 52.6441 9.3664 52.6441 7.29662ZM56.3909 9.72883C55.0472 9.72883 53.9588 8.64043 53.9588 7.29665C53.9588 5.95409 55.0472 4.86447 56.3909 4.86447C57.7335 4.86447 58.8243 5.95287 58.8243 7.29665C58.8243 8.64043 57.7335 9.72883 56.3909 9.72883ZM59.4092 3.40292C59.4092 2.91891 59.802 2.52733 60.2848 2.52733C60.77 2.52733 61.1616 2.91891 61.1616 3.40292C61.1616 3.88692 60.7688 4.2785 60.2848 4.2785C59.8008 4.2785 59.4092 3.8857 59.4092 3.40292Z" fill="#C64F2C"/>
<path id="twitter" d="M37.7722 3.2288C37.2359 3.46716 36.6582 3.62768 36.0526 3.70065C36.6716 3.32974 37.1447 2.74358 37.3696 2.04433C36.7908 2.38727 36.1499 2.63657 35.4677 2.77034C34.9229 2.18783 34.1433 1.82422 33.2836 1.82422C31.35 1.82422 29.9296 3.62768 30.3662 5.50046C27.8793 5.3752 25.6721 4.18343 24.1957 2.37268C23.4114 3.71767 23.7896 5.47857 25.1224 6.36997C24.6323 6.35416 24.1714 6.21917 23.7677 5.99541C23.7348 7.38175 24.7296 8.67932 26.1694 8.96875C25.7487 9.08306 25.2866 9.10982 24.8172 9.01983C25.1978 10.2092 26.3056 11.0738 27.6142 11.0981C26.3531 12.0856 24.7685 12.527 23.1791 12.3398C24.5046 13.1898 26.077 13.6847 27.7674 13.6847C33.3274 13.6847 36.4673 8.98942 36.2776 4.7781C36.8637 4.35734 37.3709 3.82955 37.7722 3.2288Z" fill="#C64F2C"/>
<path id="facebook" d="M2.43218 4.86436H0V7.29654H2.43218V14.5931H6.08045V7.29654H8.29374L8.51263 4.86436H6.08045V3.85136C6.08045 3.27007 6.1972 3.04023 6.75903 3.04023H8.51263V0H5.58915C3.40262 0 2.43218 0.963144 2.43218 2.80674V4.86436Z" fill="#C64F2C"/>
</g>
</svg>
